<svg width="15" height="15" viewBox="0 0 15 15" fill="none" xmlns="http://www.w3.org/2000/svg">
<path d="M7.5 15C6.4625 15 5.4875 14.8031 4.575 14.4094C3.6625 14.0156 2.86875 13.4813 2.19375 12.8063C1.51875 12.1313 0.984375 11.3375 0.590625 10.425C0.196875 9.5125 0 8.5375 0 7.5C0 6.4625 0.196875 5.4875 0.590625 4.575C0.984375 3.6625 1.51875 2.86875 2.19375 2.19375C2.86875 1.51875 3.6625 0.984375 4.575 0.590625C5.4875 0.196875 6.4625 0 7.5 0C8.5375 0 9.5125 0.196875 10.425 0.590625C11.3375 0.984375 12.1313 1.51875 12.8063 2.19375C13.4813 2.86875 14.0156 3.6625 14.4094 4.575C14.8031 5.4875 15 6.4625 15 7.5C15 8.5375 14.8031 9.5125 14.4094 10.425C14.0156 11.3375 13.4813 12.1313 12.8063 12.8063C12.1313 13.4813 11.3375 14.0156 10.425 14.4094C9.5125 14.8031 8.5375 15 7.5 15ZM7.5 13.5C9.175 13.5 10.5938 12.9188 11.7563 11.7563C12.9188 10.5938 13.5 9.175 13.5 7.5C13.5 7.4125 13.4969 7.32188 13.4906 7.22813C13.4844 7.13438 13.4813 7.05625 13.4813 6.99375C13.4188 7.35625 13.25 7.65625 12.975 7.89375C12.7 8.13125 12.375 8.25 12 8.25H10.5C10.0875 8.25 9.73438 8.10313 9.44063 7.80938C9.14688 7.51563 9 7.1625 9 6.75V6H6V4.5C6 4.0875 6.14688 3.73438 6.44063 3.44063C6.73438 3.14688 7.0875 3 7.5 3H8.25C8.25 2.7125 8.32812 2.45938 8.48438 2.24063C8.64062 2.02188 8.83125 1.84375 9.05625 1.70625C8.80625 1.64375 8.55313 1.59375 8.29688 1.55625C8.04063 1.51875 7.775 1.5 7.5 1.5C5.825 1.5 4.40625 2.08125 3.24375 3.24375C2.08125 4.40625 1.5 5.825 1.5 7.5H5.25C6.075 7.5 6.78125 7.79375 7.36875 8.38125C7.95625 8.96875 8.25 9.675 8.25 10.5V11.25H6V13.3125C6.25 13.375 6.49688 13.4219 6.74063 13.4531C6.98438 13.4844 7.2375 13.5 7.5 13.5Z" fill="white"/>
</svg>
